<svg width="40" height="40" viewBox="0 0 40 40" fill="none" xmlns="http://www.w3.org/2000/svg">
<path d="M6.75781 16.9922V28.0859L8.94531 32.3047L13.7109 34.3359H27.7869L30.9766 32.4609L33.0078 27.6953V16.6016L29.1797 12.1773H11.6788L6.75781 16.9922Z" fill="#0071FF" stroke="black" stroke-miterlimit="10"/>
<path d="M25.7188 35.3313H14.2812V36.6961H25.7188V35.3313Z" fill="#BDC3C7"/>
<path d="M12.2994 5.02965L19.4473 12.1778L20.5522 11.0729L13.4043 3.92476L12.2994 5.02965Z" fill="#FFCD02"/>
<path d="M27.1663 5.02969L26.5475 5.64844L21.6256 10.5703L20.0186 12.1774L19.8826 12.0414L19.7326 11.8922L18.9131 11.0727L19.4154 10.5703L19.7326 10.2531L19.8826 10.1031L26.0615 3.92422L27.1663 5.02969Z" fill="#FFCD02"/>
<path d="M12.8519 5.65047C13.4999 5.65047 14.0251 5.12521 14.0251 4.47726C14.0251 3.82932 13.4999 3.30406 12.8519 3.30406C12.204 3.30406 11.6787 3.82932 11.6787 4.47726C11.6787 5.12521 12.204 5.65047 12.8519 5.65047Z" fill="#FFCD02"/>
<path d="M27.7866 4.47735C27.7866 5.125 27.2616 5.65078 26.6132 5.65078C26.5913 5.65078 26.5693 5.65 26.5475 5.64844C25.9522 5.61563 25.4749 5.13828 25.4428 4.54297C25.4412 4.5211 25.4404 4.49922 25.4404 4.47735C25.4404 3.82969 25.9655 3.30391 26.6132 3.30391C27.2616 3.30391 27.7866 3.82969 27.7866 4.47735Z" fill="#FFCD02"/>
<path d="M25.6049 10.5703H14.3955C9.4416 10.5703 5.41113 14.6008 5.41113 19.5547V26.5461C5.41113 31.4617 9.37988 35.468 14.2814 35.5288C14.3189 35.5305 14.3572 35.5305 14.3955 35.5305H25.6049C25.6432 35.5305 25.6814 35.5305 25.7189 35.5288C30.6205 35.468 34.5892 31.4616 34.5892 26.5461V19.5547C34.5892 14.6008 30.5589 10.5703 25.6049 10.5703ZM32.2455 26.5461C32.2455 30.2078 29.2666 33.1867 25.6049 33.1867H14.3955C10.7338 33.1867 7.75488 30.2078 7.75488 26.5461V19.5547C7.75488 15.8937 10.7338 12.9141 14.3955 12.9141H25.6049C29.2666 12.9141 32.2455 15.893 32.2455 19.5547V26.5461Z" fill="white"/>
<path opacity="0.1" d="M34.5891 19.5547V26.5461C34.5891 31.4617 30.6203 35.468 25.7188 35.5288V36.696H19.8828V10.1031L25.443 4.54297C25.4414 4.5211 25.4406 4.49922 25.4406 4.47735C25.4406 3.82969 25.9657 3.30391 26.6134 3.30391C27.2618 3.30391 27.7868 3.82969 27.7868 4.47735C27.7868 5.125 27.2618 5.65078 26.6134 5.65078C26.5915 5.65078 26.5695 5.65 26.5477 5.64844L21.6258 10.5703H25.6048C30.5587 10.5703 34.5891 14.6008 34.5891 19.5547Z" fill="white"/>
</svg>
